<mxfile host="app.diagrams.net" modified="2023-01-17T04:45:09.265Z" agent="5.0 (X11)" version="20.8.5" etag="GEh0c9wLNPdcle3XAvIA" type="github">
  <diagram id="DtXqf0S3KLXC3uquicLb" name="Page-1">
    <mxGraphModel dx="2882" dy="1722" grid="1" gridSize="10" guides="1" tooltips="1" connect="1" arrows="1" fold="1" page="1" pageScale="1" pageWidth="850" pageHeight="1100" math="0" shadow="0">
      <root>
        <mxCell id="0" />
        <mxCell id="1" parent="0" />
        <mxCell id="2pv7KV363uQilXXTCo94-6" style="edgeStyle=orthogonalEdgeStyle;rounded=0;orthogonalLoop=1;jettySize=auto;html=1;" edge="1" parent="1" source="2pv7KV363uQilXXTCo94-2" target="2pv7KV363uQilXXTCo94-3">
          <mxGeometry relative="1" as="geometry" />
        </mxCell>
        <mxCell id="2pv7KV363uQilXXTCo94-7" style="edgeStyle=orthogonalEdgeStyle;rounded=0;orthogonalLoop=1;jettySize=auto;html=1;" edge="1" parent="1" source="2pv7KV363uQilXXTCo94-2" target="2pv7KV363uQilXXTCo94-4">
          <mxGeometry relative="1" as="geometry" />
        </mxCell>
        <mxCell id="2pv7KV363uQilXXTCo94-8" style="edgeStyle=orthogonalEdgeStyle;rounded=0;orthogonalLoop=1;jettySize=auto;html=1;" edge="1" parent="1" source="2pv7KV363uQilXXTCo94-2" target="2pv7KV363uQilXXTCo94-5">
          <mxGeometry relative="1" as="geometry" />
        </mxCell>
        <mxCell id="2pv7KV363uQilXXTCo94-2" value="3" style="shape=umlFrame;whiteSpace=wrap;html=1;" vertex="1" parent="1">
          <mxGeometry x="190" y="150" width="300" height="160" as="geometry" />
        </mxCell>
        <mxCell id="2pv7KV363uQilXXTCo94-3" value="``" style="shape=umlFrame;whiteSpace=wrap;html=1;" vertex="1" parent="1">
          <mxGeometry x="-410" y="390" width="710" height="810" as="geometry" />
        </mxCell>
        <mxCell id="2pv7KV363uQilXXTCo94-4" value="practice page" style="shape=umlFrame;whiteSpace=wrap;html=1;" vertex="1" parent="1">
          <mxGeometry x="340" y="390" width="300" height="200" as="geometry" />
        </mxCell>
        <mxCell id="2pv7KV363uQilXXTCo94-5" value="content page" style="shape=umlFrame;whiteSpace=wrap;html=1;" vertex="1" parent="1">
          <mxGeometry x="650" y="390" width="300" height="200" as="geometry" />
        </mxCell>
        <mxCell id="2pv7KV363uQilXXTCo94-21" value="" style="shape=process;whiteSpace=wrap;html=1;backgroundOutline=1;rounded=0;" vertex="1" parent="1">
          <mxGeometry x="-320" y="620" width="500" height="425" as="geometry" />
        </mxCell>
        <mxCell id="2pv7KV363uQilXXTCo94-47" style="edgeStyle=orthogonalEdgeStyle;rounded=0;orthogonalLoop=1;jettySize=auto;html=1;" edge="1" parent="1" source="2pv7KV363uQilXXTCo94-30" target="2pv7KV363uQilXXTCo94-45">
          <mxGeometry relative="1" as="geometry" />
        </mxCell>
        <mxCell id="2pv7KV363uQilXXTCo94-30" value="" style="ellipse;html=1;shape=startState;fillColor=#000000;strokeColor=#ff0000;" vertex="1" parent="1">
          <mxGeometry x="-70" y="632.5" width="30" height="30" as="geometry" />
        </mxCell>
        <mxCell id="2pv7KV363uQilXXTCo94-31" value="" style="edgeStyle=orthogonalEdgeStyle;html=1;verticalAlign=bottom;endArrow=open;endSize=8;strokeColor=#ff0000;rounded=0;startArrow=none;" edge="1" parent="1">
          <mxGeometry relative="1" as="geometry">
            <mxPoint x="-55" y="722.5" as="targetPoint" />
            <mxPoint x="-55" y="737.5" as="sourcePoint" />
          </mxGeometry>
        </mxCell>
        <mxCell id="2pv7KV363uQilXXTCo94-35" value="" style="edgeStyle=orthogonalEdgeStyle;html=1;verticalAlign=bottom;endArrow=none;endSize=8;strokeColor=#ff0000;rounded=0;" edge="1" parent="1" source="2pv7KV363uQilXXTCo94-30">
          <mxGeometry relative="1" as="geometry">
            <mxPoint x="-55" y="677.5" as="targetPoint" />
            <mxPoint x="-55" y="662.5" as="sourcePoint" />
          </mxGeometry>
        </mxCell>
        <mxCell id="2pv7KV363uQilXXTCo94-38" style="edgeStyle=orthogonalEdgeStyle;rounded=0;orthogonalLoop=1;jettySize=auto;html=1;" edge="1" parent="1" target="2pv7KV363uQilXXTCo94-36">
          <mxGeometry relative="1" as="geometry">
            <mxPoint x="80" y="550" as="sourcePoint" />
          </mxGeometry>
        </mxCell>
        <mxCell id="2pv7KV363uQilXXTCo94-39" style="edgeStyle=orthogonalEdgeStyle;rounded=0;orthogonalLoop=1;jettySize=auto;html=1;" edge="1" parent="1" target="2pv7KV363uQilXXTCo94-37">
          <mxGeometry relative="1" as="geometry">
            <mxPoint x="80" y="550" as="sourcePoint" />
          </mxGeometry>
        </mxCell>
        <mxCell id="2pv7KV363uQilXXTCo94-65" style="edgeStyle=orthogonalEdgeStyle;rounded=0;orthogonalLoop=1;jettySize=auto;html=1;" edge="1" parent="1" source="2pv7KV363uQilXXTCo94-45" target="2pv7KV363uQilXXTCo94-60">
          <mxGeometry relative="1" as="geometry" />
        </mxCell>
        <mxCell id="2pv7KV363uQilXXTCo94-45" value="calculate problem" style="rounded=1;whiteSpace=wrap;html=1;arcSize=40;fontColor=#000000;fillColor=#ffffc0;strokeColor=#ff0000;" vertex="1" parent="1">
          <mxGeometry x="-115" y="687.5" width="120" height="40" as="geometry" />
        </mxCell>
        <mxCell id="2pv7KV363uQilXXTCo94-58" style="edgeStyle=orthogonalEdgeStyle;rounded=0;orthogonalLoop=1;jettySize=auto;html=1;" edge="1" parent="1" source="2pv7KV363uQilXXTCo94-48" target="2pv7KV363uQilXXTCo94-57">
          <mxGeometry relative="1" as="geometry" />
        </mxCell>
        <mxCell id="2pv7KV363uQilXXTCo94-48" value="print data" style="rounded=1;whiteSpace=wrap;html=1;arcSize=40;fontColor=#000000;fillColor=#ffffc0;strokeColor=#ff0000;" vertex="1" parent="1">
          <mxGeometry x="-130" y="877.5" width="120" height="40" as="geometry" />
        </mxCell>
        <mxCell id="2pv7KV363uQilXXTCo94-50" value="save data" style="rounded=1;whiteSpace=wrap;html=1;arcSize=40;fontColor=#000000;fillColor=#ffffc0;strokeColor=#ff0000;" vertex="1" parent="1">
          <mxGeometry x="5" y="877.5" width="120" height="40" as="geometry" />
        </mxCell>
        <mxCell id="2pv7KV363uQilXXTCo94-57" value="" style="ellipse;html=1;shape=endState;fillColor=#000000;strokeColor=#ff0000;" vertex="1" parent="1">
          <mxGeometry x="-160" y="967.5" width="30" height="30" as="geometry" />
        </mxCell>
        <mxCell id="2pv7KV363uQilXXTCo94-59" value="data =&amp;gt; steps needed to get to solution and answer to problem" style="shape=note;whiteSpace=wrap;html=1;backgroundOutline=1;darkOpacity=0.05;" vertex="1" parent="1">
          <mxGeometry x="-10" y="932.5" width="130" height="100" as="geometry" />
        </mxCell>
        <mxCell id="2pv7KV363uQilXXTCo94-60" value="was problem calculated" style="rhombus;whiteSpace=wrap;html=1;fillColor=#ffffc0;strokeColor=#ff0000;" vertex="1" parent="1">
          <mxGeometry x="-15" y="737.5" width="120" height="60" as="geometry" />
        </mxCell>
        <mxCell id="2pv7KV363uQilXXTCo94-61" value="no" style="edgeStyle=orthogonalEdgeStyle;html=1;align=left;verticalAlign=bottom;endArrow=open;endSize=8;strokeColor=#ff0000;rounded=0;entryX=0.45;entryY=0.05;entryDx=0;entryDy=0;entryPerimeter=0;" edge="1" source="2pv7KV363uQilXXTCo94-60" parent="1" target="2pv7KV363uQilXXTCo94-73">
          <mxGeometry x="-1" relative="1" as="geometry">
            <mxPoint x="195" y="667.5" as="targetPoint" />
          </mxGeometry>
        </mxCell>
        <mxCell id="2pv7KV363uQilXXTCo94-62" value="yes" style="edgeStyle=orthogonalEdgeStyle;html=1;align=left;verticalAlign=top;endArrow=open;endSize=8;strokeColor=#ff0000;rounded=0;entryX=0.49;entryY=0.4;entryDx=0;entryDy=0;entryPerimeter=0;" edge="1" source="2pv7KV363uQilXXTCo94-60" parent="1" target="2pv7KV363uQilXXTCo94-66">
          <mxGeometry x="-1" relative="1" as="geometry">
            <mxPoint x="55" y="747.5" as="targetPoint" />
          </mxGeometry>
        </mxCell>
        <mxCell id="2pv7KV363uQilXXTCo94-70" style="edgeStyle=orthogonalEdgeStyle;rounded=0;orthogonalLoop=1;jettySize=auto;html=1;" edge="1" parent="1" source="2pv7KV363uQilXXTCo94-66" target="2pv7KV363uQilXXTCo94-48">
          <mxGeometry relative="1" as="geometry" />
        </mxCell>
        <mxCell id="2pv7KV363uQilXXTCo94-71" style="edgeStyle=orthogonalEdgeStyle;rounded=0;orthogonalLoop=1;jettySize=auto;html=1;" edge="1" parent="1" source="2pv7KV363uQilXXTCo94-66" target="2pv7KV363uQilXXTCo94-50">
          <mxGeometry relative="1" as="geometry" />
        </mxCell>
        <mxCell id="2pv7KV363uQilXXTCo94-66" value="" style="shape=line;html=1;strokeWidth=6;strokeColor=#ff0000;" vertex="1" parent="1">
          <mxGeometry x="30" y="827.5" width="10" height="10" as="geometry" />
        </mxCell>
        <mxCell id="2pv7KV363uQilXXTCo94-73" value="print error message" style="rounded=1;whiteSpace=wrap;html=1;arcSize=40;fontColor=#000000;fillColor=#ffffc0;strokeColor=#ff0000;" vertex="1" parent="1">
          <mxGeometry x="-250" y="817.5" width="120" height="40" as="geometry" />
        </mxCell>
        <mxCell id="2pv7KV363uQilXXTCo94-74" value="" style="edgeStyle=orthogonalEdgeStyle;html=1;verticalAlign=bottom;endArrow=open;endSize=8;strokeColor=#ff0000;rounded=0;entryX=0.5;entryY=0;entryDx=0;entryDy=0;" edge="1" source="2pv7KV363uQilXXTCo94-73" parent="1" target="2pv7KV363uQilXXTCo94-57">
          <mxGeometry relative="1" as="geometry">
            <mxPoint x="65" y="827.5" as="targetPoint" />
          </mxGeometry>
        </mxCell>
        <mxCell id="2pv7KV363uQilXXTCo94-77" value="Actor" style="shape=umlActor;verticalLabelPosition=bottom;verticalAlign=top;html=1;rounded=0;" vertex="1" parent="1">
          <mxGeometry x="-85" y="440" width="30" height="60" as="geometry" />
        </mxCell>
        <mxCell id="2pv7KV363uQilXXTCo94-79" value="" style="shape=folder;fontStyle=1;spacingTop=10;tabWidth=40;tabHeight=14;tabPosition=left;html=1;rounded=0;" vertex="1" parent="1">
          <mxGeometry x="-1290" y="-1070" width="1160" height="850" as="geometry" />
        </mxCell>
        <mxCell id="2pv7KV363uQilXXTCo94-134" value="" style="verticalLabelPosition=bottom;verticalAlign=top;html=1;shape=process;whiteSpace=wrap;rounded=0;size=0.14;arcSize=6;" vertex="1" parent="1">
          <mxGeometry x="-1240" y="-1020" width="583.33" height="480" as="geometry" />
        </mxCell>
        <mxCell id="2pv7KV363uQilXXTCo94-135" value="Calculate problem" style="text;html=1;strokeColor=none;fillColor=none;align=center;verticalAlign=middle;whiteSpace=wrap;rounded=0;" vertex="1" parent="1">
          <mxGeometry x="-1240" y="-1040" width="110" height="30" as="geometry" />
        </mxCell>
        <mxCell id="2pv7KV363uQilXXTCo94-136" value="" style="ellipse;html=1;shape=startState;fillColor=#000000;strokeColor=#ff0000;rounded=0;" vertex="1" parent="1">
          <mxGeometry x="-980" y="-990" width="30" height="30" as="geometry" />
        </mxCell>
        <mxCell id="2pv7KV363uQilXXTCo94-137" value="" style="edgeStyle=orthogonalEdgeStyle;html=1;verticalAlign=bottom;endArrow=open;endSize=8;strokeColor=#ff0000;rounded=0;" edge="1" source="2pv7KV363uQilXXTCo94-136" parent="1" target="2pv7KV363uQilXXTCo94-138">
          <mxGeometry relative="1" as="geometry">
            <mxPoint x="-965" y="-900" as="targetPoint" />
          </mxGeometry>
        </mxCell>
        <mxCell id="2pv7KV363uQilXXTCo94-138" value="parse Into Items" style="rounded=1;whiteSpace=wrap;html=1;arcSize=40;fontColor=#000000;fillColor=#ffffc0;strokeColor=#ff0000;" vertex="1" parent="1">
          <mxGeometry x="-1025" y="-920" width="120" height="40" as="geometry" />
        </mxCell>
        <mxCell id="2pv7KV363uQilXXTCo94-139" value="" style="edgeStyle=orthogonalEdgeStyle;html=1;verticalAlign=bottom;endArrow=open;endSize=8;strokeColor=#ff0000;rounded=0;" edge="1" source="2pv7KV363uQilXXTCo94-138" parent="1">
          <mxGeometry relative="1" as="geometry">
            <mxPoint x="-965" y="-770" as="targetPoint" />
          </mxGeometry>
        </mxCell>
        <mxCell id="2pv7KV363uQilXXTCo94-140" value="Activity" style="rounded=1;whiteSpace=wrap;html=1;arcSize=40;fontColor=#000000;fillColor=#ffffc0;strokeColor=#ff0000;" vertex="1" parent="1">
          <mxGeometry x="-1110" y="-840" width="120" height="40" as="geometry" />
        </mxCell>
        <mxCell id="2pv7KV363uQilXXTCo94-141" value="" style="edgeStyle=orthogonalEdgeStyle;html=1;verticalAlign=bottom;endArrow=open;endSize=8;strokeColor=#ff0000;rounded=0;" edge="1" source="2pv7KV363uQilXXTCo94-140" parent="1">
          <mxGeometry relative="1" as="geometry">
            <mxPoint x="-1050" y="-740" as="targetPoint" />
          </mxGeometry>
        </mxCell>
      </root>
    </mxGraphModel>
  </diagram>
</mxfile>
